<?xml version="1.0" encoding="UTF-8" standalone="no"?>
<svg
   xmlns:dc="http://purl.org/dc/elements/1.1/"
   xmlns:cc="http://creativecommons.org/ns#"
   xmlns:rdf="http://www.w3.org/1999/02/22-rdf-syntax-ns#"
   xmlns:svg="http://www.w3.org/2000/svg"
   xmlns="http://www.w3.org/2000/svg"
   viewBox="0 0 1038.6667 236"
   height="236"
   width="1038.6667"
   xml:space="preserve"
   id="svg2"
   version="1.1"><metadata
     id="metadata8"><rdf:RDF><cc:Work
         rdf:about=""><dc:format>image/svg+xml</dc:format><dc:type
           rdf:resource="http://purl.org/dc/dcmitype/StillImage" /></cc:Work></rdf:RDF></metadata><defs
     id="defs6" /><g
     transform="matrix(1.3333333,0,0,-1.3333333,0,236)"
     id="g10"><g
       transform="scale(0.1)"
       id="g12"><path
         id="path14"
         style="fill:#000000;fill-opacity:1;fill-rule:nonzero;stroke:none"
         d="m 6047.81,840.672 c -7.68,-3.5 -14.79,-7.055 -22.71,-10.352 l -12.46,-4.718 -6.21,-2.278 -7.34,-1.832 -7.31,-1.695 -3.66,-0.785 -1.81,-0.399 -0.91,-0.183 -1.69,-0.231 -10.91,-0.98 c -7.16,-0.617 -16.56,-0.965 -24.07,-1.133 -30.3,-0.41 -57.58,1.984 -82.65,2.894 -9.1,0.364 -17.79,0.391 -26.25,0.223 v -0.223 l -2.25,0.168 c -13.86,-0.367 -26.87,-1.46 -38.39,-3.714 -4.82,-0.903 -9.01,-2.434 -13.44,-3.657 -3.68,-1.918 -8.24,-2.988 -11.33,-5.371 -3.43,-2.078 -6.87,-4.117 -9.41,-6.926 l -3.78,-3.296 -4.67,-5.981 c -13.26,-16.051 -21.59,-29.18 -30.08,-43.223 -16.6,-27.746 -27.32,-51.441 -34.85,-67.398 -2.45,-5.262 -4.42,-9.656 -6.01,-13.293 v -0.465 h -0.19 c -3.14,-7.203 -4.65,-11.097 -4.65,-11.097 l -7.51,2.058 c -0.02,0 0.49,3.266 1.68,9.336 l -454.61,12.684 460.15,12.843 c 2.89,12.153 6.81,27.278 12.7,44.934 l -327.78,12.277 336.91,12.637 c 6.08,15.242 14.38,33.637 23.89,49.352 1.25,2.179 2.52,4.359 3.81,6.566 2.51,3.902 4.15,5.438 6.38,8.293 0.21,0.266 0.46,0.477 0.66,0.734 l -255.08,18.516 357.85,25.965 v -0.305 c 8.35,0.988 16.73,1.824 25.12,2.512 26.72,2.004 53.96,2.816 80.45,5.199 6.64,0.774 11.59,1.266 18.8,2.453 l 10.79,1.922 c 0.72,0.508 4.05,1.606 5.96,2.274 l 3.38,1.031 4.12,2.031 8.26,3.981 c 5.75,2.992 11.95,6.785 17.97,10.128 0.98,0.602 2,1.211 2.99,1.801 l -445.6,10.805 482.8,11.707 c 13.41,8.102 27.01,16.336 40.79,24.676 4.57,2.715 9.29,5.375 13.97,8.051 l -238.16,17.042 314.4,22.493 c 31.29,14.537 64.11,27.727 98.12,39.007 l -592.69,17.59 761.33,22.61 c 18.92,2.92 38.06,5.36 57.45,7.33 l 14.43,1.77 14,1.05 28.06,2.08 28.13,2.18 30.07,0.7 29.28,0.57 c 9.76,0.32 19.54,0.39 29.33,-0.39 19.58,-1.1 39.17,-1.88 58.71,-3.31 78.17,-6.98 155.45,-24.69 227.57,-51.87 72.07,-27.43 138.38,-64.837 198.2,-104.903 14.73,-10.043 29.34,-20.016 43.82,-29.903 0.66,-0.445 1.3,-0.882 1.95,-1.304 l 8.51,0.543 v -6.25 c 3.58,-2.403 7.18,-4.821 10.74,-7.207 7.22,-4.907 12.87,-7.844 19.28,-12.008 27.38,-14.129 60.24,-18.578 91.44,-25.375 63.26,-11.164 124.31,-18.043 180.59,-23.766 56.49,-5.226 107.67,-8.726 154.1,-10.121 12.81,-0.359 25.44,-3.398 36.28,-8.922 10.9,-5.465 19.89,-13.054 27.02,-21.207 14.26,-16.5 22.04,-34.469 27.57,-50.582 10.7,-32.574 12.88,-59.097 14.35,-76.984 1.19,-17.918 0.84,-27.613 0.84,-27.613 l -7.78,-0.02 c 0,0 -0.19,9.309 -2.36,26.719 -2.41,17.289 -6.16,43.172 -17.98,73.117 -5.98,14.809 -14.3,30.726 -27.05,43.887 -12.54,13.265 -30.47,22.222 -51.15,21.504 -45.92,-0.887 -98.9,0.062 -155.81,2.55 -57.06,2.977 -118.77,6.848 -184.32,15.086 -16.49,2.715 -33.04,4.614 -50.14,8.133 -8.62,2.059 -17.28,4.149 -26.01,6.25 l -6.56,1.598 c 1.02,-0.434 -2.31,0.804 -2.24,0.785 l -0.73,0.305 -1.48,0.609 -2.94,1.211 c -3.97,1.699 -7.76,3.047 -11.92,5.082 -7,3.801 -14.9,7.851 -21.56,11.789 l -393.53,25.457 319.32,20.656 c -6.32,3.86 -12.65,7.68 -19.05,11.438 l -422.95,12.293 381.02,11.062 c -40.66,21.531 -83.11,40.617 -127.57,55.633 -68.46,22.798 -140.86,36.458 -213.93,40.168 -18.28,0.5 -36.61,0.38 -54.86,0.63 -9.11,0.33 -18.24,-0.15 -27.36,-0.87 l -27.35,-1.77 -26.42,-1.7 -28,-3.5 -27.91,-3.57 -13.92,-1.8 -13.25,-2.38 c -70.35,-11.34 -140.36,-29.017 -204.83,-50.657 -65.14,-21.067 -125.11,-48.348 -181.74,-77.008 -28.9,-15.254 -57,-30.105 -84.18,-44.453" /><path
         id="path16"
         style="fill:#000000;fill-opacity:1;fill-rule:nonzero;stroke:none"
         d="m 7190.53,580.609 c 0.71,0.727 1.32,1.356 2.04,2.114 6.28,6.39 13.6,13.418 22.38,20.175 2.42,2.043 5.24,3.954 7.9,5.907 l -149.4,8.914 181.09,10.804 c 8.4,4.36 17.19,8.532 26.84,11.743 6.66,2.328 13.66,4.257 20.89,5.652 7.1,1.801 14.55,2.641 22.02,3.488 14.88,1.848 30.2,2.051 45.35,1.84 15.19,-0.777 30.33,-2.234 44.82,-5.734 14.58,-3.028 28.37,-8.035 41.16,-13.684 25.71,-11.23 46.68,-26.66 62.87,-41.144 16.08,-14.727 27.77,-28.426 35.01,-38.68 7.33,-10.125 10.75,-16.531 10.75,-16.531 l -3.9,-2.657 c 0,0 -4.31,5.344 -13.17,13.692 -8.8,8.281 -21.8,19.707 -38.96,30.824 -8.64,5.426 -18.17,10.938 -28.65,15.777 -10.55,4.625 -21.6,9.485 -33.59,12.649 -11.87,3.398 -24.32,5.875 -37.04,7.16 -12.67,1.594 -25.68,1.293 -38.49,0.508 -12.85,-1.36 -25.56,-3.629 -37.7,-7.5 -6.09,-1.77 -12.04,-3.731 -17.88,-5.938 -5.85,-2.113 -11.71,-3.847 -17.31,-6.25 -11.49,-3.746 -22.44,-8.226 -33.21,-11.859 -10.53,-4.227 -20.85,-7.754 -30.22,-11.75 -4.8,-1.82 -9.39,-3.574 -13.77,-5.238 -4.36,-1.782 -8.36,-3.7 -12.41,-5.133 -8,-2.981 -15,-5.742 -20.79,-8.063 -11.68,-4.531 -19.01,-6.543 -19.01,-6.543 l -2.92,3.727 c 0,0 1.62,2.551 4.53,6.641 l -343.56,12.179 364.33,12.91" /><path
         id="path18"
         style="fill:#000000;fill-opacity:1;fill-rule:nonzero;stroke:none"
         d="m 5933.73,585.438 c 5.66,5.648 11.99,11.625 19.57,17.46 2.43,2.043 5.24,3.954 7.9,5.907 l -149.41,8.914 181.1,10.804 c 8.41,4.36 17.2,8.532 26.84,11.743 6.67,2.328 13.67,4.257 20.9,5.652 7.1,1.801 14.55,2.641 22.01,3.488 14.89,1.848 30.21,2.051 45.36,1.84 15.19,-0.777 30.33,-2.234 44.82,-5.734 14.57,-3.028 28.37,-8.035 41.14,-13.684 25.72,-11.23 46.7,-26.66 62.88,-41.144 16.08,-14.727 27.78,-28.426 35.02,-38.68 7.32,-10.125 10.75,-16.531 10.75,-16.531 l -3.91,-2.657 c 0,0 -4.31,5.344 -13.16,13.692 -8.82,8.281 -21.81,19.707 -38.96,30.824 -8.65,5.426 -18.17,10.938 -28.64,15.777 -10.56,4.625 -21.61,9.485 -33.6,12.649 -11.88,3.398 -24.32,5.875 -37.04,7.16 -12.67,1.594 -25.68,1.293 -38.51,0.508 -12.84,-1.36 -25.54,-3.629 -37.68,-7.5 -6.09,-1.77 -12.04,-3.731 -17.88,-5.938 -5.85,-2.113 -11.71,-3.847 -17.32,-6.25 -11.48,-3.746 -22.44,-8.226 -33.2,-11.859 -10.55,-4.227 -20.85,-7.754 -30.22,-11.75 -4.8,-1.82 -9.39,-3.574 -13.77,-5.238 -4.36,-1.782 -8.37,-3.7 -12.42,-5.133 -8,-2.981 -15,-5.742 -20.79,-8.063 -11.67,-4.531 -19,-6.543 -19,-6.543 l -2.92,3.727 c 0,0 2.79,4.434 8.16,11.59 l -341.25,12.097 363.23,12.872" /><path
         id="path20"
         style="fill:#c60000;fill-opacity:1;fill-rule:nonzero;stroke:none"
         d="M 1287.48,6.14063 1236.69,214.914 1050.49,6.14063 H 435.453 L 9.4375,1766.62 H 1761.45 l 160.82,-773.034 679.92,773.034 h 880.24 L 1908.16,6.14063 Z M 1899.7,37.1758 3417.54,1735.58 H 2610.66 L 1899.7,925.879 1730.42,1735.58 H 923.531 L 1084.34,1013.34 1033.56,945.629 864.285,1735.58 H 54.5781 L 466.484,37.1758 H 1039.2 L 1259.27,279.805 1321.33,37.1758 Z M 1408.79,130.277 1324.15,477.293 1010.99,130.277 H 553.945 L 190,1642.48 h 584.004 l 203.133,-919.734 217.243,296.234 -141.07,623.5 h 584.01 l 194.66,-919.734 806.89,919.734 h 581.18 L 1865.84,130.277 Z M 3053.6,592.965 h 304.7 c -39.5,7.523 -74.77,21.164 -105.8,40.91 -31.04,19.75 -55.02,45.609 -71.95,77.586 -16.92,31.973 -25.86,71.473 -26.8,118.492 -0.94,47.024 8.93,102.508 29.63,166.457 l 141.06,434.48 c 11.29,33.85 34.33,70.53 69.12,110.02 34.8,39.5 74.76,76.18 119.9,110.04 45.15,33.85 91.7,61.59 139.66,83.22 47.96,21.63 89.81,32.45 125.54,32.45 h 1706.88 l -191.85,-586.83 h -304.7 c 39.5,-9.4 74.3,-23.51 104.39,-42.32 30.09,-18.81 54.08,-44.67 71.94,-77.58 17.87,-32.92 27.27,-72.886 28.22,-119.906 0.94,-47.019 -8.94,-101.566 -29.63,-163.632 L 5022.85,341.875 c -11.29,-33.859 -34.33,-70.531 -69.12,-110.031 -34.8,-39.496 -74.3,-76.176 -118.5,-110.028 C 4791.03,87.957 4744.95,60.2148 4696.99,38.5859 4649.03,16.957 4606.24,6.14063 4568.63,6.14063 H 2861.75 Z M 2904.07,37.1758 h 1675.84 c 33.85,0 72.41,9.875 115.67,29.625 43.26,19.75 84.64,44.6682 124.14,74.7622 39.49,30.093 74.76,63.007 105.8,98.746 31.03,35.734 52.19,69.589 63.47,101.566 l 141.06,434.477 c 22.58,69.589 31.04,128.836 25.4,177.738 -5.65,48.9 -20.69,88.4 -45.14,118.49 -24.45,30.1 -56.9,51.73 -97.34,64.89 -40.43,13.17 -84.17,19.75 -131.18,19.75 h -970.52 l 16.92,53.6 h 1342.93 l 169.27,524.76 H 3767.38 c -33.85,0 -71.94,-9.87 -114.26,-29.62 -42.32,-19.75 -84.17,-44.67 -125.55,-74.76 -41.38,-30.1 -77.58,-63.01 -108.62,-98.75 -31.03,-35.73 -52.19,-69.59 -63.48,-101.56 L 3214.41,996.41 c -22.57,-69.594 -31.03,-128.84 -25.39,-177.742 5.64,-48.902 21.16,-88.398 46.55,-118.492 25.39,-30.094 58.31,-51.723 98.74,-64.891 40.44,-13.164 84.17,-19.75 131.19,-19.75 h 967.7 l -16.93,-53.601 H 3073.34 Z m 592.47,668.6402 c -35.74,0 -68.65,5.172 -98.75,15.516 -30.09,10.348 -54.54,27.277 -73.35,50.789 -18.81,23.508 -30.56,53.602 -35.27,90.277 -4.7,36.676 1.41,81.348 18.34,134.012 l 141.06,434.48 c 7.53,22.57 22.11,46.08 43.73,70.53 21.63,24.45 46.56,47.02 74.77,67.71 28.21,20.69 57.84,38.09 88.87,52.19 31.03,14.11 57.84,21.16 80.41,21.16 H 5316.26 L 5206.23,1303.93 H 3902.8 l -47.96,-28.22 -59.25,-183.38 25.39,-25.39 h 1029.77 c 35.74,0 68.65,-5.17 98.75,-15.51 30.09,-10.35 54.54,-27.28 73.35,-50.79 18.81,-23.507 30.09,-53.605 33.85,-90.277 3.76,-36.679 -2.82,-81.351 -19.74,-134.011 L 4895.89,341.875 c -7.52,-22.57 -22.1,-46.086 -43.73,-70.531 -21.63,-24.453 -46.55,-47.024 -74.76,-67.711 -28.22,-20.692 -57.37,-38.09 -87.46,-52.195 -30.1,-14.106 -57.37,-21.161 -81.82,-21.161 H 3025.38 l 110.03,338.555 h 1306.25 l 50.79,28.211 59.25,183.383 -25.4,25.39 H 3496.54" /><path
         id="path22"
         style="fill:#231f20;fill-opacity:1;fill-rule:nonzero;stroke:none"
         d="M 5197.96,255.887 5129.27,45.0938 H 5235 l 41.08,125.2612 h 257.26 c 8.54,0 17.18,1.235 25.93,3.704 8.76,2.468 17.18,6.511 25.26,12.125 8.08,5.609 15.38,12.796 21.88,21.55 6.52,8.754 11.79,19.418 15.84,31.989 l 37.71,115.836 c 1.79,5.39 2.02,11 0.67,16.839 -1.34,5.836 -3.81,11.223 -7.41,16.161 -3.59,4.941 -7.85,9.093 -12.79,12.461 -4.94,3.367 -10.33,5.05 -16.17,5.05 h -377.81 l -26.27,-80.816 H 5532 l 7.41,-6.734 -18.19,-55.899 -11.45,-6.734 z m 305.08,21.551 8.76,25.589 h -320.57 l 40.4,125.266 h 400.04 c 8.08,0 15.83,-2.359 23.24,-7.07 7.41,-4.715 13.47,-10.664 18.18,-17.848 4.71,-7.184 8.08,-15.043 10.1,-23.57 2.02,-8.532 1.69,-16.614 -1.01,-24.246 l -37.71,-115.836 c -5.39,-16.164 -12.46,-30.082 -21.22,-41.754 -8.75,-11.676 -18.4,-21.102 -28.95,-28.285 -10.55,-7.184 -21.78,-12.461 -33.68,-15.829 -11.9,-3.367 -23.46,-5.05 -34.68,-5.05 H 5291.57 L 5251.16,22.8672 h -150.85 l 82.16,254.5708 z M 5177.75,285.52 5090.2,15.457 h 165.68 l 41.08,125.938 h 226.96 c 12.12,0 24.58,1.8 37.37,5.39 12.8,3.59 25.03,9.317 36.71,17.172 11.67,7.859 22.22,17.961 31.65,30.309 9.43,12.343 17.06,27.5 22.9,45.457 l 37.72,115.836 c 2.69,8.082 3.03,16.839 1,26.265 -2.02,9.43 -5.72,18.184 -11.11,26.266 -5.39,8.078 -12.12,14.703 -20.2,19.867 -8.08,5.164 -16.62,7.742 -25.59,7.742 h -407.45 l -45.8,-140.078 h 320.57 l -3.37,-10.101 z M 6136.1,45.0938 6055.28,406.07 H 5949.55 L 5633.02,45.0938 h 113.14 l 44.45,48.4882 h 220.9 l 12.12,-48.4882 z M 5995.34,177.766 h -131.32 l 100.35,117.855 z m -86.87,21.547 h 55.22 l -14.14,49.164 z m 94.96,-176.4458 -12.8,48.4883 H 5796.67 L 5752.89,22.8672 H 5587.9 l 354.92,405.4258 h 134.01 l 90.92,-405.4258 z m 174.43,-7.4102 -93.62,420.242 H 5940.79 L 5572.41,15.457 h 182.51 l 43.77,48.4922 h 184.53 l 12.8,-48.4922 z m -232.35,218.203 6.73,-26.937 h -29.63 z m 334.04,22.227 -68.69,-210.7932 h 106.4 l 40.41,124.5902 h 63.98 L 6526.04,45.0938 h 150.18 L 6572.5,169.684 c 12.13,0 24.48,1.347 37.05,4.039 12.57,2.695 24.35,6.847 35.36,12.461 10.99,5.609 20.87,12.796 29.63,21.55 8.75,8.754 15.15,19.418 19.19,31.989 l 37.72,115.836 c 1.79,5.39 1.9,11 0.33,16.839 -1.57,5.836 -4.15,11.223 -7.74,16.161 -3.59,4.941 -7.97,9.093 -13.13,12.461 -5.17,3.367 -10.45,5.05 -15.83,5.05 h -367.04 l -26.27,-80.816 h 300.37 l 7.41,-6.734 -18.19,-55.899 -11.45,-6.734 z m 293.63,21.551 8.75,25.589 h -309.12 l 40.41,125.266 h 389.26 c 8.09,0 15.72,-2.359 22.9,-7.07 7.19,-4.715 13.25,-10.664 18.19,-17.848 4.94,-7.184 8.53,-15.043 10.77,-23.57 2.25,-8.532 2.02,-16.614 -0.67,-24.246 l -37.71,-115.836 c -7.64,-23.348 -20.43,-41.868 -38.39,-55.559 -17.96,-13.695 -37.71,-23.461 -59.27,-29.297 L 6728.08,22.8672 H 6511.22 L 6406.84,148.133 h -33.01 L 6333.43,22.8672 H 6181.9 l 82.16,254.5708 z m -314.51,8.082 -87.55,-270.063 h 167.7 l 40.4,125.266 h 20.88 L 6505.16,15.457 h 241.1 l -113.14,136.715 c 20.2,6.734 38.5,17.289 54.89,31.652 16.38,14.367 28.39,33.004 36.03,55.899 l 37.71,115.836 c 2.7,8.082 2.92,16.839 0.68,26.265 -2.25,9.43 -6.18,18.184 -11.79,26.266 -5.62,8.078 -12.46,14.703 -20.54,19.867 -8.08,5.164 -16.39,7.742 -24.92,7.742 h -397.34 l -45.8,-140.078 h 309.79 l -3.37,-10.101 z m 571.1,-270.063 90.92,280.164 h -132.67 l 45.79,140.078 h 436.41 l -45.8,-140.078 h -142.1 L 6991.4,15.457 Z m 156.92,7.4102 90.92,280.1598 h 142.1 l 40.41,125.266 h -421.59 l -40.41,-125.266 h 132.67 L 6839.87,22.8672 Z m -117.86,22.2266 90.92,280.1602 h -132.67 l 26.26,80.816 h 377.14 l -26.26,-80.816 h -142.1 L 6971.2,45.0938 Z m 340.1,110.4452 h 72.74 c -9.43,1.797 -17.85,5.051 -25.26,9.766 -7.41,4.715 -13.13,10.886 -17.17,18.519 -4.04,7.637 -6.17,17.063 -6.4,28.289 -0.22,11.223 2.13,24.469 7.07,39.731 l 33.68,103.715 c 2.69,8.082 8.19,16.839 16.5,26.265 8.3,9.43 17.84,18.184 28.62,26.266 10.77,8.078 21.89,14.703 33.34,19.867 11.44,5.164 21.43,7.742 29.97,7.742 h 407.44 l -45.79,-140.078 h -72.74 c 9.43,-2.246 17.74,-5.613 24.92,-10.101 7.18,-4.493 12.91,-10.665 17.17,-18.52 4.27,-7.859 6.52,-17.398 6.74,-28.625 0.22,-11.223 -2.13,-24.246 -7.07,-39.062 L 7679.02,95.6016 c -2.7,-8.0821 -8.2,-16.836 -16.5,-26.2657 -8.31,-9.4257 -17.74,-18.1836 -28.29,-26.2656 -10.55,-8.082 -21.55,-14.7031 -33,-19.8672 -11.45,-5.1601 -21.66,-7.7461 -30.64,-7.7461 H 7163.14 Z M 7173.24,22.8672 h 400.04 c 8.08,0 17.29,2.3555 27.61,7.0703 10.33,4.7148 20.2,10.6641 29.63,17.8477 9.43,7.1836 17.85,15.039 25.26,23.5703 7.41,8.5312 12.46,16.6133 15.15,24.2461 l 33.68,103.7114 c 5.38,16.613 7.4,30.757 6.06,42.429 -1.35,11.672 -4.94,21.106 -10.78,28.289 -5.84,7.18 -13.58,12.344 -23.23,15.489 -9.66,3.14 -20.09,4.71 -31.32,4.71 h -231.67 l 4.04,12.797 h 320.57 l 40.41,125.266 h -399.37 c -8.08,0 -17.17,-2.359 -27.27,-7.07 -10.1,-4.715 -20.09,-10.664 -29.97,-17.848 -9.88,-7.184 -18.53,-15.043 -25.93,-23.57 -7.41,-8.532 -12.46,-16.614 -15.15,-24.246 l -33.68,-103.715 c -5.38,-16.61 -7.41,-30.754 -6.06,-42.426 1.35,-11.676 5.05,-21.102 11.11,-28.285 6.06,-7.188 13.92,-12.348 23.58,-15.492 9.65,-3.141 20.09,-4.715 31.31,-4.715 h 231 l -4.04,-12.793 H 7213.65 Z M 7314.67,182.48 c -8.53,0 -16.39,1.231 -23.57,3.704 -7.19,2.468 -13.02,6.507 -17.51,12.121 -4.49,5.613 -7.3,12.797 -8.42,21.55 -1.12,8.754 0.33,19.418 4.38,31.989 l 33.67,103.715 c 1.8,5.39 5.28,11 10.44,16.839 5.16,5.836 11.11,11.223 17.84,16.161 6.74,4.941 13.81,9.093 21.22,12.461 7.41,3.367 13.81,5.05 19.19,5.05 h 377.14 l -26.26,-80.816 h -311.14 l -11.45,-6.734 -14.15,-43.778 6.07,-6.058 h 245.81 c 8.53,0 16.39,-1.235 23.57,-3.707 7.19,-2.469 13.03,-6.508 17.52,-12.122 4.48,-5.613 7.18,-12.796 8.08,-21.55 0.89,-8.754 -0.68,-19.418 -4.72,-31.992 L 7648.71,95.6016 c -1.8,-5.3868 -5.28,-11 -10.44,-16.836 -5.16,-5.8359 -11.11,-11.2265 -17.85,-16.164 -6.73,-4.9375 -13.69,-9.0938 -20.87,-12.4571 -7.19,-3.3672 -13.7,-5.0507 -19.53,-5.0507 H 7202.2 l 26.26,80.8122 h 311.82 l 12.12,6.739 14.15,43.773 -6.07,6.062 h -245.81" /></g></g></svg>